<?xml version="1.0" standalone="no"?>
<!DOCTYPE svg PUBLIC "-//W3C//DTD SVG 20010904//EN"
 "http://www.w3.org/TR/2001/REC-SVG-20010904/DTD/svg10.dtd">
<svg version="1.0" xmlns="http://www.w3.org/2000/svg"
 width="1600.000000pt" height="1600.000000pt" viewBox="0 0 1600.000000 1600.000000"
 preserveAspectRatio="xMidYMid meet">
<metadata>
Created by potrace 1.16, written by Peter Selinger 2001-2019
</metadata>
<g transform="translate(0.000000,1600.000000) scale(0.100000,-0.100000)"
fill="#D19A66" stroke="none">
<path d="M7391 15489 c-1655 -82 -3255 -741 -4481 -1845 -69 -62 -145 -133
-170 -159 -25 -26 -58 -56 -73 -67 l-28 -20 3 135 c2 133 1 137 -28 194 -70
137 -247 180 -367 89 -77 -59 -309 -360 -449 -583 -274 -437 -398 -844 -415
-1358 -6 -174 -8 -193 -29 -226 -35 -56 -158 -305 -230 -465 -348 -778 -549
-1588 -614 -2484 -18 -233 -14 -976 5 -1169 89 -888 319 -1689 715 -2486 390
-787 840 -1423 1405 -1990 439 -441 868 -776 1395 -1090 1081 -644 2322 -985
3590 -985 1774 0 3385 527 4653 1523 1272 1000 2163 2419 2542 4051 72 312
128 665 162 1021 22 238 26 1005 5 1235 -74 830 -250 1546 -563 2285 -82 196
-301 630 -413 820 -617 1048 -1488 1927 -2531 2552 -1222 733 -2658 1093
-4084 1022z m629 -509 c1460 -61 2789 -552 3917 -1447 192 -152 503 -427 503
-445 0 -4 33 -56 74 -115 164 -242 292 -501 384 -783 30 -91 92 -324 92 -345
0 -5 -13 6 -28 25 -62 79 -219 256 -324 366 -935 973 -2260 1654 -3698 1899
-164 28 -235 28 -288 1 -148 -77 -188 -259 -86 -393 36 -48 84 -68 282 -123
1092 -298 1791 -752 2267 -1470 200 -302 351 -612 525 -1078 65 -175 220 -636
220 -655 0 -6 -28 30 -62 81 -106 154 -187 251 -328 393 -140 140 -276 256
-344 291 -164 85 -366 -38 -366 -223 0 -49 14 -91 94 -290 247 -618 387 -1140
451 -1684 25 -212 31 -642 11 -845 -43 -450 -148 -825 -336 -1200 -311 -621
-832 -1127 -1485 -1445 -411 -200 -820 -317 -1285 -366 -149 -16 -533 -16
-680 0 -251 28 -531 92 -722 167 -54 21 -96 39 -95 40 1 1 40 8 87 14 329 44
653 146 971 305 127 63 155 80 504 304 217 140 360 214 457 236 37 8 132 22
211 30 190 19 259 46 354 141 60 60 92 134 105 241 21 166 -32 319 -160 468
-296 342 -758 531 -1212 494 -190 -15 -330 -50 -633 -158 -463 -165 -627 -202
-897 -203 -182 -1 -301 17 -465 69 -257 83 -428 210 -553 413 -55 90 -112 246
-119 331 -11 116 54 234 142 258 77 21 181 7 339 -45 124 -42 222 -21 294 60
66 75 149 285 177 445 20 112 19 314 -1 424 l-16 88 23 17 c245 178 439 299
679 427 414 219 649 472 746 800 20 71 27 119 31 230 5 130 4 144 -17 193 -36
85 -151 170 -310 231 -149 58 -198 62 -559 55 -357 -7 -475 0 -639 42 -175 44
-290 121 -347 234 -34 67 -30 106 25 271 111 333 320 606 602 788 48 31 115
72 149 91 181 103 185 332 8 444 -38 24 -155 44 -327 56 -650 46 -1300 -207
-1760 -685 l-104 -107 -141 21 c-369 54 -693 53 -1061 -6 l-109 -17 -78 81
c-91 97 -185 220 -254 333 l-49 83 214 211 c1106 1089 2539 1758 4094 1911
326 32 570 39 906 25z m3084 -2047 c704 -422 1284 -1013 1690 -1721 116 -203
184 -343 296 -611 24 -58 57 -120 73 -138 86 -98 245 -108 349 -23 20 17 49
56 65 87 l28 58 3 262 c4 264 -5 433 -34 631 -9 57 -14 106 -12 108 6 5 99
-157 188 -329 415 -800 666 -1694 730 -2597 27 -391 22 -718 -16 -1090 -205
-2003 -1297 -3809 -2979 -4927 -894 -595 -1903 -962 -2974 -1083 -302 -34
-523 -43 -881 -37 -348 6 -517 19 -830 63 -1925 269 -3666 1386 -4720 3029
-593 923 -945 1954 -1045 3054 -18 202 -21 710 -5 921 33 438 90 790 195 1195
140 545 303 954 626 1568 46 87 49 116 30 282 -40 342 29 740 185 1065 55 115
143 270 153 270 4 0 19 -37 34 -83 37 -106 140 -319 210 -429 118 -187 276
-372 428 -504 160 -138 178 -143 408 -103 405 69 762 63 1165 -19 219 -45 261
-31 392 135 222 279 497 473 819 576 142 46 133 46 96 -4 -201 -267 -334 -562
-398 -883 -27 -136 -27 -139 -10 -202 68 -260 244 -477 482 -597 144 -71 333
-121 565 -148 60 -7 256 -12 455 -13 193 -1 358 -5 368 -10 24 -12 22 -27 -17
-110 -46 -100 -102 -180 -172 -246 -78 -74 -86 -79 -329 -215 -338 -189 -561
-334 -765 -498 -197 -158 -223 -214 -181 -387 36 -149 49 -308 35 -412 l-6
-44 -52 14 c-75 21 -274 20 -356 -2 -211 -57 -381 -197 -475 -391 -81 -168
-95 -319 -49 -523 33 -149 63 -232 131 -363 71 -138 158 -253 279 -368 165
-158 327 -252 575 -335 245 -81 459 -112 704 -103 307 12 520 62 1015 239 301
107 372 123 565 122 177 -1 243 -14 391 -75 107 -45 244 -138 293 -201 23 -28
40 -52 39 -53 -2 -2 -54 -10 -116 -19 -269 -40 -403 -100 -856 -389 -121 -77
-270 -166 -330 -198 -489 -256 -1063 -346 -1626 -253 -111 19 -151 12 -226
-39 -98 -66 -133 -200 -80 -312 41 -88 263 -289 476 -432 523 -349 1266 -524
2010 -473 1247 87 2394 712 3055 1665 334 481 540 1048 622 1705 22 182 26
793 5 990 -17 161 -58 438 -83 558 -10 53 -18 97 -15 99 4 5 94 -194 145 -322
77 -197 157 -464 211 -708 16 -73 29 -108 53 -139 112 -146 358 -126 436 36
37 75 53 195 58 435 10 407 -46 838 -173 1331 -266 1036 -735 1938 -1374 2639
-52 58 -86 102 -76 98 10 -4 69 -37 130 -74z"/>
<path d="M7435 14218 c-204 -16 -423 -46 -457 -63 -46 -24 -96 -73 -121 -120
-16 -30 -21 -58 -21 -110 0 -80 20 -129 76 -181 76 -72 112 -78 320 -54 95 11
243 24 330 29 136 8 162 13 206 35 124 63 175 213 113 335 -26 51 -100 114
-149 129 -44 13 -134 13 -297 0z"/>
<path d="M3725 5131 c-51 -13 -77 -31 -309 -215 -196 -155 -229 -185 -251
-229 -29 -59 -34 -156 -11 -211 35 -83 138 -156 222 -156 89 0 130 22 349 195
115 91 222 177 237 192 75 71 94 194 45 289 -54 107 -170 162 -282 135z"/>
<path d="M4630 4241 c-46 -15 -85 -39 -116 -73 -50 -52 -324 -419 -345 -460
-84 -164 43 -360 233 -361 73 0 125 22 174 75 45 47 328 427 350 469 25 47 25
161 0 209 -25 49 -74 98 -120 122 -43 22 -136 32 -176 19z"/>
<path d="M5729 3616 c-54 -19 -102 -51 -127 -85 -13 -17 -71 -152 -129 -299
-89 -224 -106 -276 -106 -322 -1 -184 190 -305 359 -226 81 38 103 75 220 366
94 233 107 272 107 325 1 169 -170 296 -324 241z"/>
<path d="M8260 3330 c-77 -15 -147 -67 -182 -134 -34 -66 -32 -122 11 -415 35
-230 45 -281 68 -322 57 -106 182 -154 307 -117 55 16 138 99 154 154 19 64
15 118 -28 401 -26 177 -45 274 -59 300 -48 95 -168 154 -271 133z"/>
<path d="M6940 3299 c-55 -25 -105 -71 -131 -121 -23 -46 -94 -602 -84 -658 9
-49 38 -100 77 -136 55 -53 95 -68 173 -69 59 0 78 5 123 29 55 31 105 88 121
140 13 40 71 526 71 593 0 98 -83 206 -178 233 -57 16 -123 12 -172 -11z"/>
</g>
</svg>
