<svg xmlns="http://www.w3.org/2000/svg" xmlns:xlink="http://www.w3.org/1999/xlink" width="55" height="55" viewBox="0 0 55 55">
  <defs>
    <clipPath id="clip-path">
      <rect id="Rettangolo_15" data-name="Rettangolo 15" width="55" height="55" transform="translate(511 410)" fill="#282c34" stroke="#707070" stroke-width="1"/>
    </clipPath>
  </defs>
  <g id="Gruppo_di_maschere_10" data-name="Gruppo di maschere 10" transform="translate(-511 -410)" clip-path="url(#clip-path)">
    <path id="google" d="M28.043,23.568V33h15.6c-.633,4.049-4.717,11.859-15.6,11.859a17.362,17.362,0,0,1,0-34.718A15.482,15.482,0,0,1,39,14.383L46.468,7.2A26.316,26.316,0,0,0,28.047,0a27.5,27.5,0,1,0,0,55c15.867,0,26.4-11.161,26.4-26.868a25.136,25.136,0,0,0-.43-4.554l-25.973-.011,0,0Z" transform="translate(511.001 410.001)" fill="#282c34" fill-rule="evenodd"/>
  </g>
</svg>
