<svg id="g5" xmlns="http://www.w3.org/2000/svg" width="127.919" height="89.564" viewBox="0 0 127.919 89.564">
  <path id="path7" d="M125.284,14.014A16.027,16.027,0,0,0,114.009,2.74C104,0,63.959,0,63.959,0s-40.04,0-50.05,2.634A16.356,16.356,0,0,0,2.634,14.014C0,24.024,0,44.782,0,44.782S0,65.645,2.634,75.55A16.027,16.027,0,0,0,13.909,86.824c10.115,2.74,50.05,2.74,50.05,2.74s40.04,0,50.05-2.634a16.027,16.027,0,0,0,11.274-11.274c2.634-10.01,2.634-30.768,2.634-30.768s.105-20.863-2.634-30.873Z" transform="translate(0 0)" fill="#282c34"/>
  <path id="polygon9" d="M99.351,52.2l-33.3-19.177V71.381Z" transform="translate(-14.845 -7.422)" fill="#ffffff"/>
</svg>
